<?xml version="1.0" encoding="UTF-8"?><!DOCTYPE svg PUBLIC "-//W3C//DTD SVG 1.1//EN" "http://www.w3.org/Graphics/SVG/1.1/DTD/svg11.dtd"><svg xmlns="http://www.w3.org/2000/svg"><symbol id="icon-arrow-down" viewBox="0 0 16 16"><path d="M8 16c-.4 0-.7-.1-1-.4l-6.6-6C.1 9.4 0 9 0 8.7c0-.3.1-.7.4-.9.3-.2.6-.4 1-.4s.7.1 1 .4l4.3 3.9V1.3C6.7.6 7.3 0 8.1 0c.8 0 1.4.6 1.4 1.3v10.4l4.2-3.9c.6-.5 1.4-.5 2 0 .3.2.4.6.4.9 0 .3-.2.7-.4.9l-6.6 6.1c-.4.2-.7.3-1.1.3z"/></symbol><symbol id="icon-arrow-up" viewBox="0 0 16 16"><title>path8897</title><path d="M8 0c.4 0 .7.1 1 .4l6.6 6c.3.2.4.6.4.9 0 .3-.1.7-.4.9-.3.2-.6.4-1 .4s-.7-.1-1-.4L9.3 4.3v10.4c0 .7-.6 1.3-1.4 1.3-.8 0-1.4-.6-1.4-1.3V4.3L2.3 8.2c-.6.5-1.4.5-2 0-.3-.2-.4-.6-.4-.9 0-.3.2-.7.4-.9L6.9.3C7.3.1 7.6 0 8 0z"/></symbol><symbol id="icon-bank-transfer" viewBox="0 0 40.5 40.5"><path d="M39.58 16.587c.473 0 .945-.393.945-.944v-3.698a.865.865 0 0 0-.472-.787L22.033.456c-1.102-.63-2.36-.63-3.541 0L.472 11.158a.865.865 0 0 0-.472.787v3.698c0 .472.393.944.944.944h2.754v16.604A3.694 3.694 0 0 0 0 36.889v2.754c0 .473.393.945.944.945h38.637c.472 0 .944-.394.944-.945V36.89a3.694 3.694 0 0 0-3.698-3.698V16.587h2.754zm-.944 20.224v1.81H1.81v-1.81A1.78 1.78 0 0 1 3.62 35h33.207a1.78 1.78 0 0 1 1.81 1.81zM5.508 33.112V16.51h3.699v16.603H5.508zm5.509 0V16.51h5.508v16.603h-5.508zm7.396 0V16.51h3.699v16.603h-3.699zm5.509 0V16.51h5.508v16.603h-5.508zm7.396 0V16.51h3.699v16.603h-3.699zM1.81 14.7v-2.203L19.358 2.109a1.705 1.705 0 0 1 1.73 0l17.548 10.387v2.203H1.81z"/></symbol><symbol id="icon-cash-on-delivery" viewBox="0 0 41 33.3"><path d="M20.516-.006c-3.365-.002-6.1 2.72-6.102 6.086-.002 3.365 2.739 6.103 6.086 6.102 3.365.002 6.1-2.72 6.102-6.086 0-2.954-2.09-5.396-4.87-5.97-.38-.09-.804-.131-1.216-.132zm-.008 1.4c.317.008.65.035.959.097a4.676 4.676 0 0 1 3.753 4.6c-.007 2.597-2.096 4.7-4.694 4.693s-4.7-2.095-4.693-4.693a4.659 4.659 0 0 1 4.675-4.696zM0 14.654l-.002 15.705 7.553.006.006-1.382 1.645.005 12.238 4.08c.467.14.918.26 1.442.258.728.008 1.447-.191 2.111-.529L39.528 25.1c1.304-.64 1.91-2.295 1.25-3.733-.668-1.383-2.241-2.033-3.622-1.515l-8.947 3.016c.065-.197.064-.459.063-.72a3.074 3.074 0 0 0-3.085-3.086l-6.639.01a2.69 2.69 0 0 1-.655-.13l-4.268-2.24-.066-.065a3.771 3.771 0 0 0-1.187-.203l-4.806.003.005-1.776-7.572-.008zm1.304 1.378l4.937-.003.007 13.089.008.076-4.937.003c.003-.018-.015-13.165-.015-13.165zm6.184 1.779l4.806-.004c.261 0 .458.064.728.14l4.269 2.24.065.065c.336.14.721.194 1.114.193l6.639-.01c.99.008 1.778.79 1.771 1.78.002.525-.269.992-.595 1.32l-1.261.46-5.384-.003c-1.383-.006-2.495 1.13-2.498 2.494l1.309-.004a1.174 1.174 0 0 1 1.175-1.183l5.46-.005a2.873 2.873 0 0 0 1.766-.595l10.581-3.61c.785-.265 1.637.06 1.975.854.443.716.192 1.71-.61 2.103L24.27 31.668c-.784.395-1.709.453-2.571.202L9.283 27.727l-1.852.003c.055.008.056-9.92.056-9.92z"/></symbol><symbol id="icon-desktop" viewBox="0 0 43.5 38.4"><path d="M43.5 30.708V.003H0v30.705h19.194v5.113H14.08v2.556h15.352v-2.556h-5.126v-5.113H43.5zM2.556 25.595V2.56h38.388v23.035H2.556z"/></symbol><symbol id="icon-envelope" viewBox="0 0 19.357 14.518"><path fill="#1EAEEA" d="M16.937 0H2.42A2.42 2.42 0 0 0 0 2.42v9.678a2.42 2.42 0 0 0 2.42 2.42h14.517a2.42 2.42 0 0 0 2.42-2.42V2.42A2.42 2.42 0 0 0 16.937 0zm-3.983 6.456l5.122-4.389c.035.114.07.227.07.352v9.679c0 .084-.031.158-.048.237l-5.144-5.879zm3.983-5.246c.08 0 .151.03.227.046L9.678 7.672 2.193 1.256c.075-.016.146-.046.227-.046h14.517zM1.257 12.334c-.016-.079-.047-.152-.047-.236V2.42c0-.126.036-.24.071-.353l5.12 4.388-5.143 5.88zm1.163.974c-.123 0-.234-.036-.345-.07L7.32 7.243l1.965 1.684a.598.598 0 0 0 .787 0l1.964-1.684 5.246 5.995c-.111.034-.222.07-.345.07H2.42z"/></symbol><symbol id="icon-eshops" viewBox="-229.301 -191.45 103.501 69.2"><path fill="#A6C720" d="M-212.4-191.45c-2.3 0-4.2 1.9-4.2 4.2v21.6l3 1.2v-24.1h79.7v49.4h-48.7l-1.8 6.5h50.9c4.5 0 6-1.4 7.2-2.1.8-.9.4-1 .4-1h-5.7c.5-.7.8-1.5.8-2.4v-49.1c0-2.3-1.9-4.2-4.3-4.2h-77.3zm-15.5 26.9c-.5 0-1.1.4-1.3.9-.3.8.1 1.6.8 1.9l6.1 2.4 7.5 21.6c-.3.1-.6.3-.7.7l-2.2 6c-.1.4 0 .8.2 1.1s.6.5 1 .5h1.1c-.7.8-1.1 1.8-1.1 2.9 0 2.4 1.9 4.3 4.3 4.3s4.3-1.9 4.3-4.3c0-1.1-.4-2.1-1.1-2.9h9.4c-.6.8-1.1 1.8-1.1 2.9 0 2.4 2 4.3 4.4 4.3 2.3 0 4.3-1.9 4.3-4.3 0-1.1-.4-2.1-1.1-2.9h1.3c.7 0 1.2-.5 1.2-1.2 0-.6-.5-1.2-1.2-1.2h-23l1.3-3.7c.2.1.4.1.6.1h21.1c.7 0 1.2-.4 1.4-1l6-18.8c.2-.4.1-.9-.2-1.2-.3-.4-.7-.6-1.2-.6h-32.6l-1.3-3.9c-.2-.4-.5-.7-.9-.8l-6.7-2.7c-.2-.1-.4-.1-.6-.1zm10.5 10.3h8.8v3.3h-7.7l-1.1-3.3zm11.7 0h6.7v3.3h-6.7v-3.3zm9.6 0h8.4l-1.1 3.3h-7.3v-3.3zm-19.2 6.2h6.7v3.7h-5.4l-1.3-3.7zm9.6 0h6.7v3.7h-6.7v-3.7zm9.6 0h6.4l-1.2 3.7h-5.2v-3.7zm-16.9 6.6h4.4v3.1h-3.3l-1.1-3.1zm7.3 0h6.7v3.1h-6.7v-3.1zm9.6 0h4.3l-1 3.1h-3.3v-3.1zm16.9 6h10.9v.7h-10.9v-.7zm-33 7c1 0 1.9.8 1.9 1.9s-.9 1.9-1.9 1.9c-1.1 0-1.9-.8-1.9-1.9s.8-1.9 1.9-1.9zm15.9 0c1 0 1.9.8 1.9 1.9s-.9 1.9-1.9 1.9c-1.1 0-2-.8-2-1.9s.9-1.9 2-1.9z"/></symbol><symbol id="icon-facebook" viewBox="0 0 16 16"><path fill="#fff" d="M13.281 0H1.718A.718.718 0 0 0 1 .718v11.563c0 .397.322.718.718.718h6.225V7.965H6.249V6.003h1.694V4.556c0-1.679 1.025-2.593 2.523-2.593.718 0 1.334.053 1.514.077v1.755h-1.039c-.815 0-.972.387-.972.955v1.252h1.943l-.254 1.962H9.969v5.034h3.312a.718.718 0 0 0 .719-.717V.717A.719.719 0 0 0 13.281 0z"/></symbol><symbol id="icon-graf" viewBox="0 0 54 54"><path d="M52.638 22.091H33.137c-.678 0-1.227-.55-1.227-1.227V1.362a1.223 1.223 0 0 1 1.362-1.22C44.01 1.334 52.666 9.991 53.859 20.729a1.23 1.23 0 0 1-1.221 1.362zM34.364 2.779v16.857h16.857c-1.532-8.517-8.34-15.325-16.857-16.857zM54.002 27c0 14.889-12.113 27.001-27.002 27.001S-.002 41.889-.002 27C-.002 12.111 12.111-.002 27-.002c1.356 0 2.455 1.1 2.455 2.456v22.091h22.092A2.455 2.455 0 0 1 54.002 27z"/></symbol><symbol id="icon-heart" viewBox="0 0 18.048 15.47"><path fill="#D80027" d="M16.77 1.249C15.915.416 14.737 0 13.233 0c-.416 0-.841.072-1.274.216a5.15 5.15 0 0 0-1.209.585 12.9 12.9 0 0 0-.962.69 9.31 9.31 0 0 0-.765.684 9.318 9.318 0 0 0-.765-.684c-.269-.215-.59-.445-.962-.69A5.156 5.156 0 0 0 6.088.216 4.018 4.018 0 0 0 4.814 0C3.31 0 2.132.416 1.28 1.249.426 2.08 0 3.236 0 4.713c0 .45.079.914.237 1.39.157.477.337.883.539 1.219.2.336.43.663.684.982.256.319.442.538.56.66.117.12.21.208.276.261l6.285 6.063c.12.121.269.182.443.182.175 0 .322-.06.443-.182l6.275-6.043c1.537-1.537 2.306-3.048 2.306-4.532 0-1.477-.426-2.632-1.279-3.464zm-1.904 7.05l-5.842 5.63-5.851-5.64C1.917 7.033 1.289 5.84 1.289 4.713c0-.543.073-1.024.217-1.44.144-.416.329-.747.554-.992a2.66 2.66 0 0 1 .82-.6 3.64 3.64 0 0 1 .947-.311c.31-.054.638-.08.987-.08.35 0 .725.085 1.128.256.403.171.774.386 1.113.644.34.26.63.5.871.726.242.225.443.431.605.619.12.148.285.222.493.222a.604.604 0 0 0 .494-.222c.16-.188.362-.394.604-.62.242-.224.532-.466.871-.725.34-.258.71-.473 1.113-.644.403-.171.78-.257 1.128-.257s.678.027.987.08c.309.054.624.158.947.313.322.154.596.354.82.6.226.244.41.575.555.991.144.416.216.897.216 1.44 0 1.128-.631 2.324-1.893 3.586z"/></symbol><symbol id="icon-marketshare" viewBox="0 0 68.487445 72.353907"><path style="line-height:normal;text-indent:0;text-align:start;text-decoration-line:none;text-decoration-style:solid;text-decoration-color:#000;text-transform:none;block-progression:tb;isolation:auto;mix-blend-mode:normal;marker:none" d="M46.234 0L42.46 27.145l-.11.792 23.079-9.353 1.08-.438 1.978-.804-.13-.358a25.93 25.93 0 0 0-.315-.822l-.156-.387.016-.007-.159-.356c-.014-.031-.015-.034-.02-.04l-.01-.026c-.004-.007-.008-.013-.01-.02l-.007-.015-.002-.002A26.137 26.137 0 0 0 48.761.355c-.39-.086-.628-.114-.738-.134l-.506-.07c-.313-.044-.905-.108-.905-.108L46.234 0zm2.173 2.873a23.607 23.607 0 0 1 16.805 13.074l-19.758 8.008 2.953-21.082zM33.29 6.646c-13.204-.18-25.429 7.63-30.685 20.036-5.801 13.689-1.68 29.58 10.043 38.724 11.722 9.144 28.14 9.275 40.005.317C64.52 56.764 68.89 40.939 63.306 27.16l-.418-1.031-1.03.418-27.634 11.2 4.29-30.63-1.1-.154a32.953 32.953 0 0 0-4.124-.317zm.215 2.254c.827.019 1.658.07 2.492.157l-4.51 32.197L61.62 29.043c4.585 12.602.466 26.77-10.306 34.904a30.624 30.624 0 0 1-37.3-.293A30.623 30.623 0 0 1 4.653 27.55C9.589 15.897 21.095 8.627 33.505 8.9z" color="#000" font-weight="400" font-family="sans-serif" white-space="normal" overflow="visible" fill="#a6c720"/></symbol><symbol id="icon-menu-close" viewBox="0 0 20 23"><path d="M20 23L10 13 0 23v-3l8.5-8.5L0 3V0l10 10L20 0v3l-8.5 8.5L20 20v3z"/></symbol><symbol id="icon-menu" viewBox="0 0 22 16"><path d="M0 16v-2h22v2H0zm0-9h22v2H0V7zm0-7h22v2H0V0z"/></symbol><symbol id="icon-mobile" viewBox="0 0 21.5 38"><path d="M18.753 0H2.824a2.705 2.705 0 0 0-2.74 2.74v32.371a2.705 2.705 0 0 0 2.74 2.74h15.929a2.705 2.705 0 0 0 2.74-2.74V2.741A2.705 2.705 0 0 0 18.753 0zM6.763 1.713h7.88c.17 0 .342.342.342.685s-.171.685-.343.685H6.764c-.172 0-.343-.343-.343-.685s.171-.685.343-.685zm3.94 33.57c-1.028 0-1.713-.857-1.713-1.713 0-1.028.857-1.713 1.713-1.713 1.028 0 1.713.857 1.713 1.713.171.856-.685 1.713-1.713 1.713zm8.735-6.166H2.139V4.624h17.299v24.493z"/></symbol><symbol id="icon-monitor-obchod" viewBox="0 0 64 54"><path d="M60.628 40.846H26.741l2.245-8.001.634-2.285h25.963V4.978H15.701V24.42h-4.939V4.992c0-2.752 2.219-4.984 4.952-4.984H55.57c2.734 0 4.952 2.232 4.952 4.984v25.249c0 .651.225 1.276.634 1.781l2.549 3.162c.185.24.291.532.291.824v1.449a3.376 3.376 0 0 1-3.368 3.389zm-19.611-5.303h-10.75v.372c0 .944.766 1.715 1.704 1.715H39.3c.938 0 1.704-.771 1.704-1.715h.013v-.372zm-16.692-7.282l1.003-3.548a1.333 1.333 0 0 1 1.281-.971H31.06c.568 0 1.017.466 1.017 1.024v.106a1.02 1.02 0 0 1-1.017 1.023h-3.83l-1.968 6.924-2.694 9.608a3.546 3.546 0 0 1 2.668 3.442c0 1.874-1.453 3.415-3.288 3.535.158.451.224.93.184 1.435-.145 1.701-1.505 3.057-3.195 3.176-2.008.146-3.685-1.462-3.685-3.455 0-.399.079-.784.198-1.143h-4.028c.172.478.238.997.172 1.542a3.46 3.46 0 0 1-3.169 3.056c-2.008.146-3.698-1.462-3.698-3.455 0-1.927 1.585-3.468 3.499-3.468H21.71c.66 0 1.215-.505 1.241-1.17a1.216 1.216 0 0 0-1.215-1.262H5.664a2.972 2.972 0 0 1-2.892-2.273L.092 31.53a3.018 3.018 0 0 1 .581-2.618 3.061 3.061 0 0 1 2.363-1.103h19.717c.568 0 1.109.16 1.572.452zM8.174 49.444c-.621 0-1.136.518-1.136 1.142 0 .625.515 1.143 1.136 1.143.62 0 1.135-.518 1.135-1.143 0-.624-.515-1.142-1.135-1.142zm10.538 0c-.621 0-1.136.518-1.136 1.142 0 .625.515 1.143 1.136 1.143.621 0 1.136-.518 1.136-1.143 0-.624-.515-1.142-1.136-1.142zm-4.781-7.097h1.625l.515-2.365h-2.14v2.365zm0-4.678h2.655l.541-2.498h-3.196v2.498zm-5.124 0h2.8v-2.498H8.279l.528 2.498zm-3.935-7.508H2.97a.66.66 0 0 0-.528.253.684.684 0 0 0-.119.571l.462 1.874H5.44l-.568-2.698zm1.057 5.01H3.367l.607 2.498h2.483l-.528-2.498zm-1.387 4.824l.462 1.847a.667.667 0 0 0 .647.505v.014h1.77l-.489-2.366h-2.39zm7.078-9.847H7.236l.568 2.697h3.816v-2.697zm0 9.834H9.309l.489 2.365h1.822v-2.365zm2.311-9.834v2.697h3.711l.581-2.697h-4.292zm3.989 12.199h1.782a.667.667 0 0 0 .648-.492l.515-1.873h-2.43l-.515 2.365zm1.03-4.678h2.575l.7-2.498h-2.734l-.541 2.498zm1.624-7.521l-.581 2.697h2.879l.515-1.834a.634.634 0 0 0-.119-.597.643.643 0 0 0-.528-.266h-2.166z"/></symbol><symbol id="icon-monitor-obrat" viewBox="0 0 61 55"><path d="M56.5 45.8h-52c-2 0-3.6-1.6-3.6-3.7V4.2C.9 2.2 2.5.5 4.5.5h52c2 0 3.6 1.6 3.6 3.7v37.9c0 2-1.6 3.7-3.6 3.7zm-.9-40.2H5.4v33.8h50.2V5.6zM13.1 27.7c.5 0 1 .2 1.4.4l11-8.7c-.1-.3-.2-.5-.2-.8 0-1.4 1.1-2.4 2.4-2.4 1.3 0 2.4 1.1 2.4 2.4 0 .3-.1.6-.2.8 1.8 1.6 4.4 3.8 6 5.2.4-.3.9-.5 1.5-.5.5 0 .9.1 1.3.4 1.7-1.5 4.3-4 6.1-5.6-.1-.3-.2-.6-.2-.9 0-1.4 1.1-2.4 2.4-2.4 1.3 0 2.4 1.1 2.4 2.4 0 1.4-1.1 2.4-2.4 2.4-.4 0-.8-.1-1.1-.3l-6.2 5.7c.1.2.1.5.1.7 0 1.4-1.1 2.4-2.4 2.4-1.3 0-2.4-1.1-2.4-2.4v-.4c-1.9-1.7-4.6-4-6.2-5.3-.3.2-.7.3-1.2.3s-1-.2-1.4-.5c-2.5 1.9-7.9 6.3-11 8.9.1.2.1.5.1.7 0 1.3-1.1 2.4-2.4 2.4-1.3 0-2.4-1.1-2.4-2.4.1-1.4 1.2-2.5 2.6-2.5zm24.2 19.8l6.8 7H17l6.8-7h13.5z"/></symbol><symbol id="icon-online-payment" viewBox="0 0 50.3 36.5"><path d="M4.872 15.452h8.108v1.624H4.872zM4.872 20.312h12.169v1.624H4.872zM4.872 25.185H34.07v1.624H4.872zM4.872 30.045h4.872v1.624H4.872zM12.98 30.045h4.873v1.624H12.98zM21.088 30.045h4.873v1.624h-4.873z"/><path d="M13.73-.001c-.688 0-1.648.295-2.214 1.723L8.711 10.58H2.436A2.442 2.442 0 0 0 0 13.016v21.089a2.442 2.442 0 0 0 2.436 2.436H38.13c.849 0 1.587-.43 2.03-1.095 0 0 1.095.307 1.341.307 1.07 0 1.993-.676 2.313-1.697l6.349-20.117c.197-.615.332-2.535-1.587-3.051L14.555.134C14.47.11 14.15 0 13.731 0zm.013 1.661c.11-.012.222 0 .32.037l34.02 10.741c.689.172.59.812.529 1.021l-.48 1.538-7.628-2.4a2.43 2.43 0 0 0-2.387-2.005h-3.95L12.562 3.764l.48-1.55a.808.808 0 0 1 .701-.554zM12.07 5.302l16.72 5.278H18.014l-6.915-2.19.972-3.088zM10.606 9.94l2.03.64h-2.227l.197-.64zm-8.17 2.264H38.13a.82.82 0 0 1 .812.812v21.089h-.012a.82.82 0 0 1-.812.812H2.437a.82.82 0 0 1-.813-.812V13.016a.82.82 0 0 1 .812-.812zm38.117 2.092l7.099 2.24-.984 3.1-6.115-1.932v-3.408zm-10.544.344c-1.797 0-3.249 1.452-3.249 3.249s1.452 3.248 3.249 3.248a3.33 3.33 0 0 0 1.636-.443c.48.283 1.021.443 1.612.443a3.245 3.245 0 0 0 3.248-3.248 3.245 3.245 0 0 0-3.248-3.249c-.59 0-1.144.173-1.612.443a3.33 3.33 0 0 0-1.636-.443zm0 1.624c.135 0 .283.025.418.062a3.186 3.186 0 0 0-.418 1.563c0 .578.16 1.095.418 1.562a1.639 1.639 0 0 1-.418.062 1.638 1.638 0 0 1-1.624-1.624c0-.899.725-1.625 1.624-1.625zm3.248 0c.886 0 1.624.739 1.624 1.625 0 .885-.738 1.624-1.624 1.624-.886 0-1.624-.739-1.624-1.624s.726-1.625 1.624-1.625zm7.296 3.138l5.635 1.784-3.913 12.365c-.123.418-.603.664-1.02.53l-.702-.222V19.402z"/></symbol><symbol id="icon-parfumes" viewBox="0 0 33.2 32"><path d="M5.85 9.883c2.006-.63 5.661-2.863 6.09-5.315 1.276-.611 2.48-.958 3.893-.994.036.292.155.483.538.483h.009c0 .73-.593.702-.593.702v.447h-.465v.374h-.2c-.593 0-1.067.474-1.067 1.066v2.8c0 .309.137.738.346 1.075h-.282v.592s-2.598-.063-2.863 1.933c-.264 1.997-3.063 17.705-3.063 17.705l1.067.73s2.096.52 7.457.528h.128c5.36-.009 7.457-.528 7.457-.528l1.067-.73s-2.799-15.708-3.063-17.705c-.265-1.996-2.863-1.933-2.863-1.933v-.592h-.283c.22-.328.356-.757.356-1.076V6.646c0-.592-.474-1.066-1.067-1.066h-.2v-.374h-.465v-.447s-.593.036-.593-.702h.01c.61 0 .546-.474.546-1.067v-.866c0-.547-.41-1.923-.966-2.106-.547.183-.966 1.56-.966 2.106v.383c-1.414.027-2.672.347-3.93.912-.009-.028-.009-.064-.018-.091-.92-2.89-6.345-2.653-8.68-1.906C.846 2.161-.64 4.093.28 6.992c.903 2.89 3.219 3.63 5.57 2.89zM16.662 0c.037 0 .082.01.119.018A.534.534 0 0 1 16.899 0h-.237z"/></symbol><symbol id="icon-personal-payment" viewBox="0 0 42 42.4"><path d="M41.992 19.764h-2.04v-9.36a4.068 4.068 0 0 0-4.065-4.065H33.13l-2.819-5.077A2.444 2.444 0 0 0 28.178 0c-.42 0-.826.109-1.184.311L16.17 6.34H4.068a4.068 4.068 0 0 0-4.065 4.065V38.36a4.068 4.068 0 0 0 4.065 4.065h31.82a4.068 4.068 0 0 0 4.064-4.065v-8.208h2.04V19.764zM35.887 7.96a2.43 2.43 0 0 1 2.414 2.165H35.25l-1.2-2.165h1.838zm-8.099-6.23a.825.825 0 0 1 1.106.311l4.486 8.084h-20.7l15.108-8.395zM38.332 38.36a2.45 2.45 0 0 1-2.445 2.445H4.068a2.45 2.45 0 0 1-2.445-2.445V10.404a2.45 2.45 0 0 1 2.445-2.445h9.173l-3.909 2.165h-4.75a.804.804 0 0 0-.81.81c0 .451.358.81.81.81h33.75v8.005h-5.95a5.012 5.012 0 0 0-5.014 5.015v.342a5.012 5.012 0 0 0 5.015 5.016h5.95v8.239zm2.04-9.844h-7.989a3.387 3.387 0 0 1-3.38-3.38v-.342a3.387 3.387 0 0 1 3.38-3.38h7.99v7.102zm-5.497-3.488a1.791 1.791 0 1 1-1.791-1.792c.98-.015 1.79.795 1.79 1.792z"/></symbol><symbol id="icon-phones" viewBox="0 0 20.8 36.6"><path d="M17.999 0H2.496C1.118 0 .084 1.206.084 2.584v31.35c0 1.55 1.206 2.584 2.584 2.584h15.503c1.55 0 2.584-1.206 2.584-2.584V2.584C20.755 1.206 19.549 0 17.999 0zM6.63 1.55h7.58c.171 0 .344.345.344.69s-.173.688-.345.688H6.63c-.172 0-.344-.344-.344-.689s.172-.689.344-.689zm3.79 32.384c-.862 0-1.723-.689-1.723-1.722 0-.862.69-1.723 1.723-1.723.86 0 1.722.689 1.722 1.723s-.861 1.722-1.722 1.722zm8.268-5.684H1.979V4.479h16.709v23.77z"/></symbol><symbol id="icon-pneu" viewBox="0 0 28 28"><path d="M14 28C6.28 28 0 21.72 0 14 0 6.281 6.28 0 14 0s14 6.281 14 14c0 7.72-6.28 14-14 14zm6.617-20.575c-.008-.006-.01-.017-.017-.024-.007-.008-.018-.01-.026-.017A9.301 9.301 0 0 0 14 4.666a9.302 9.302 0 0 0-6.575 2.718c-.007.007-.018.009-.025.017-.008.007-.01.018-.017.024A9.305 9.305 0 0 0 4.667 14a9.3 9.3 0 0 0 2.716 6.574c.007.008.009.019.017.026.007.006.018.009.025.016A9.297 9.297 0 0 0 14 23.333a9.296 9.296 0 0 0 6.574-2.717c.008-.007.019-.01.026-.017.007-.006.009-.017.017-.025A9.304 9.304 0 0 0 23.333 14a9.31 9.31 0 0 0-2.716-6.575zm-2.612 8.93a4.58 4.58 0 0 0 .496-1.188h2.394a6.968 6.968 0 0 1-1.196 2.883l-1.694-1.695zm0-4.71l1.694-1.694a6.943 6.943 0 0 1 1.195 2.882h-2.393a4.664 4.664 0 0 0-.496-1.188zm-2.839-2.146V7.105a6.97 6.97 0 0 1 2.883 1.196l-1.694 1.693a4.604 4.604 0 0 0-1.189-.495zM16.333 14A2.336 2.336 0 0 1 14 16.334 2.337 2.337 0 0 1 11.666 14 2.336 2.336 0 0 1 14 11.667 2.335 2.335 0 0 1 16.333 14zM9.95 8.301a6.955 6.955 0 0 1 2.883-1.195v2.393c-.424.111-.82.279-1.189.496L9.95 8.301zm-.451 4.532H7.105a6.945 6.945 0 0 1 1.196-2.882l1.694 1.694a4.511 4.511 0 0 0-.496 1.188zm.496 3.522L8.301 18.05a6.954 6.954 0 0 1-1.196-2.883h2.394c.109.423.277.821.496 1.188zm2.838 2.146v2.394a6.968 6.968 0 0 1-2.883-1.196l1.694-1.694a4.6 4.6 0 0 0 1.189.496zm5.217 1.198a6.953 6.953 0 0 1-2.883 1.195v-2.393a4.72 4.72 0 0 0 1.189-.495l1.694 1.693z"/></symbol><symbol id="icon-tablet" viewBox="0 0 28.5 39"><path d="M25.991 0H2.605A2.54 2.54 0 0 0 .054 2.551v33.875c0 1.559 1.134 2.55 2.551 2.55h23.386c1.56 0 2.551-1.133 2.551-2.55V2.55c0-1.417-1.275-2.551-2.55-2.551zM14.227 38.126c-.85 0-1.559-.708-1.559-1.559s.709-1.559 1.56-1.559c.85 0 1.558.709 1.558 1.56 0 .85-.708 1.558-1.559 1.558zm11.48-4.677H2.606V3.26H25.85v30.19z"/></symbol><symbol id="icon-tires" viewBox="0 0 50 50"><path d="M29.168 24.996c0-2.296-1.864-4.172-4.172-4.172s-4.172 1.864-4.172 4.172c0 2.296 1.864 4.172 4.172 4.172s4.172-1.864 4.172-4.172zM32.23 14.825a12.45 12.45 0 0 0-5.148-2.136v4.271a8.056 8.056 0 0 1 2.123.89l3.025-3.025zM17.85 20.8l-3.025-3.025a12.45 12.45 0 0 0-2.136 5.147h4.271a7.887 7.887 0 0 1 .89-2.123zM32.155 29.205l3.025 3.025a12.45 12.45 0 0 0 2.135-5.148h-4.27a8.976 8.976 0 0 1-.89 2.123zM16.96 27.082h-4.27a12.45 12.45 0 0 0 2.135 5.148l3.024-3.025a8.056 8.056 0 0 1-.889-2.123zM17.763 35.18a12.45 12.45 0 0 0 5.147 2.135v-4.27a8.056 8.056 0 0 1-2.123-.89l-3.024 3.025z"/><path d="M24.996 0C11.208 0 0 11.22 0 24.996c0 13.788 11.22 24.996 24.996 24.996 13.788 0 24.996-11.22 24.996-24.996C50.005 11.22 38.784 0 24.996 0zm11.825 36.735c-.012.012-.024.037-.037.05-.012.012-.037.012-.049.024-3.012 3-7.16 4.851-11.739 4.851-4.58 0-8.727-1.851-11.739-4.85-.012-.013-.037-.013-.05-.026-.012-.012-.024-.037-.036-.049-3-3.012-4.851-7.16-4.851-11.739 0-4.58 1.851-8.727 4.85-11.739.013-.012.013-.037.038-.05.012-.012.037-.024.05-.036 3.011-3 7.159-4.851 11.738-4.851 4.58 0 8.727 1.851 11.739 4.85.012.013.037.013.05.038.012.012.012.037.036.05 3 3.011 4.851 7.159 4.851 11.738a16.685 16.685 0 0 1-4.85 11.739z"/><path d="M32.155 20.8a8.49 8.49 0 0 1 .89 2.122h4.27a12.45 12.45 0 0 0-2.135-5.147l-3.025 3.024zM22.91 16.96v-4.27a12.45 12.45 0 0 0-5.147 2.135l3.024 3.024a8.688 8.688 0 0 1 2.123-.889zM27.082 33.044v4.271a12.45 12.45 0 0 0 5.148-2.135l-3.025-3.025a8.49 8.49 0 0 1-2.123.89z"/></symbol><symbol id="icon-turnover" viewBox="0 0 77.999995 63.940931"><path d="M3.942 0A3.946 3.946 0 0 0 0 3.944V49.386a3.946 3.946 0 0 0 3.942 3.944h24.625v7.92h-3.85a1.345 1.345 0 0 0 0 2.69h28.568a1.345 1.345 0 1 0 0-2.69h-3.85v-7.92h24.623A3.946 3.946 0 0 0 78 49.386V3.944A3.946 3.946 0 0 0 74.058 0H3.942zm0 2.69h70.116c.691 0 1.253.563 1.253 1.254v36.31H2.69V3.944c0-.691.562-1.253 1.253-1.253zm27.883 10.015a1.78 1.78 0 0 0-1.78 1.781c0 .341.1.656.266.927L16.526 28.75a1.781 1.781 0 0 0-.686-.138 1.78 1.78 0 0 0-1.779 1.781 1.781 1.781 0 0 0 2.139 1.748 1.788 1.788 0 0 0 1.426-1.748c0-.26-.058-.504-.158-.727L31.38 16.208c.143.037.29.062.445.062h.002l6.916 13.148a1.781 1.781 0 0 0 1.488 2.759c.984 0 1.785-.8 1.785-1.784 0-.15-.025-.294-.06-.433L61.31 16.01c.266.16.575.259.909.259a1.783 1.783 0 1 0-1.781-1.783c0 .168.03.327.073.481L41.188 28.895a1.779 1.779 0 0 0-.957-.283c-.138 0-.271.02-.4.05l-6.78-12.884c.343-.325.56-.782.56-1.291 0-.985-.802-1.782-1.786-1.782zM2.689 42.945H75.31v6.441c0 .691-.562 1.253-1.253 1.253H3.941c-.69 0-1.252-.562-1.252-1.253v-6.441zm36.31 2.224a1.299 1.299 0 1 0 1.302 1.298 1.3 1.3 0 0 0-1.302-1.298zm-7.743 8.161h15.49v7.697h-15.49V53.33z" fill="#a6c720"/></symbol></svg>