<?xml version="1.0" encoding="UTF-8"?><svg id="Vrstva_1" xmlns="http://www.w3.org/2000/svg" width="635.73" height="63.58" viewBox="0 0 635.73 63.58"><defs><style>.cls-1{fill:#d93833;}</style></defs><rect x="16.85" width="28.89" height="28.89"/><rect y="33.7" width="28.89" height="28.89"/><rect x="33.71" y="33.7" width="28.89" height="28.89"/><path class="cls-1" d="m87.24,39.28c0-13.92,8.67-24.56,22.53-24.56,11.56,0,18.39,6.9,19.37,15.83h-9.46c-.85-4.73-4.4-7.82-9.92-7.82-8.67,0-12.81,7.22-12.81,16.55s4.99,16.48,12.87,16.48c5.58,0,9.52-3.35,10.11-8.28h9.33c-.26,4.14-2.04,8.14-5.19,11.1-3.22,3.02-7.75,4.99-14.25,4.99-13.2,0-22.59-10.18-22.59-24.3Zm26.66-26.14h-9.59l-6.3-7.49h7.75l3.15,3.74h.13l3.22-3.74h7.82l-6.17,7.49Z"/><path class="cls-1" d="m131.51,45.71c0-9.98,6.76-17.73,16.62-17.73,10.84,0,16.62,8.28,16.62,20.29h-24.43c.66,5.19,3.55,8.41,8.6,8.41,3.48,0,5.52-1.58,6.5-4.14h8.8c-1.25,5.98-6.57,11.03-15.24,11.03-11.17,0-17.47-7.82-17.47-17.86Zm8.93-3.61h14.97c-.26-4.27-3.09-7.22-7.16-7.22-4.73,0-7.03,2.82-7.82,7.22Z"/><path class="cls-1" d="m166.12,51.69h8.27c.59,3.88,3.35,5.58,7.36,5.58s6.17-1.51,6.17-3.88c0-3.22-4.27-3.55-8.87-4.47-6.04-1.18-11.95-2.82-11.95-10.18s6.04-10.77,13.73-10.77c8.87,0,13.79,4.4,14.45,11.17h-8.08c-.39-3.61-2.69-4.93-6.5-4.93-3.48,0-5.78,1.31-5.78,3.74,0,2.89,4.47,3.15,9.26,4.14,5.65,1.18,11.89,2.76,11.89,10.64,0,6.76-5.78,10.84-14.19,10.84-9.79,0-15.24-4.73-15.76-11.89Z"/><path class="cls-1" d="m212.16,47.22l-3.87,4.01v11.36h-8.87V15.63h8.87v26.01l11.95-12.74h10.71l-12.41,12.81,13.92,20.88h-10.84l-9.46-15.37Z"/><path class="cls-1" d="m253.8,58.85h-.13c-1.71,2.56-4.14,4.53-9.92,4.53-6.9,0-11.76-3.61-11.76-10.31,0-7.42,6.04-9.79,13.53-10.84,5.58-.79,8.14-1.25,8.14-3.81,0-2.43-1.9-4.01-5.65-4.01-4.2,0-6.24,1.51-6.5,4.73h-7.95c.26-5.91,4.66-11.1,14.51-11.1s14.19,4.53,14.19,12.41v17.14c0,2.56.39,4.07,1.18,4.66v.33h-8.6c-.53-.66-.85-2.23-1.05-3.74Zm.07-8.14v-5.06c-1.58.92-4.01,1.44-6.24,1.97-4.66,1.05-6.96,2.1-6.96,5.25s2.1,4.27,5.25,4.27c5.12,0,7.95-3.15,7.95-6.44Zm-2.3-26.01h-6.96l3.61-9.26h10.44l-7.09,9.26Z"/><path class="cls-1" d="m276,45.71c0-9.98,6.76-17.73,16.62-17.73,10.84,0,16.62,8.28,16.62,20.29h-24.43c.66,5.19,3.55,8.41,8.6,8.41,3.48,0,5.52-1.58,6.5-4.14h8.8c-1.25,5.98-6.57,11.03-15.24,11.03-11.16,0-17.47-7.82-17.47-17.86Zm8.93-3.61h14.97c-.26-4.27-3.09-7.22-7.16-7.22-4.73,0-7.03,2.82-7.81,7.22Z"/><path class="cls-1" d="m312.06,42.5h17.8v7.68h-17.8v-7.68Z"/><path class="cls-1" d="m332.69,45.78c0-10.05,6.57-17.8,16.81-17.8,8.73,0,14.12,5.06,15.3,12.35h-8.73c-.59-2.96-2.89-5.19-6.17-5.19-5.38,0-8.14,4.14-8.14,10.64s2.56,10.64,8.01,10.64c3.61,0,6.17-1.9,6.76-5.71h8.6c-.59,7.16-6.17,12.87-15.17,12.87-10.64,0-17.27-7.75-17.27-17.8Z"/><path class="cls-1" d="m366.71,45.78c0-10.05,7.16-17.8,17.6-17.8s17.6,7.75,17.6,17.8-7.16,17.8-17.6,17.8-17.6-7.75-17.6-17.8Zm26.14,0c0-6.57-3.09-11.03-8.54-11.03s-8.54,4.47-8.54,11.03,3.02,10.97,8.54,10.97,8.54-4.4,8.54-10.97Z"/><path class="cls-1" d="m405.39,28.9h8.6v4.53h.2c1.84-3.09,5.12-5.45,9.79-5.45,4.27,0,7.68,2.36,9.33,5.91h.13c2.3-3.68,5.84-5.91,10.11-5.91,7.09,0,11.1,4.6,11.1,11.95v22.66h-8.93v-21.15c0-3.81-1.9-5.78-5.19-5.78-3.74,0-6.04,2.89-6.04,7.36v19.57h-8.93v-21.15c0-3.81-1.9-5.78-5.19-5.78-3.61,0-6.04,2.89-6.04,7.36v19.57h-8.93V28.9Z"/><path class="cls-1" d="m459.52,28.9h8.6v4.53h.2c1.84-3.09,5.12-5.45,9.79-5.45,4.27,0,7.68,2.36,9.33,5.91h.13c2.3-3.68,5.84-5.91,10.11-5.91,7.09,0,11.1,4.6,11.1,11.95v22.66h-8.93v-21.15c0-3.81-1.9-5.78-5.19-5.78-3.74,0-6.04,2.89-6.04,7.36v19.57h-8.93v-21.15c0-3.81-1.9-5.78-5.19-5.78-3.61,0-6.04,2.89-6.04,7.36v19.57h-8.93V28.9Z"/><path class="cls-1" d="m511.99,45.71c0-9.98,6.76-17.73,16.62-17.73,10.84,0,16.62,8.28,16.62,20.29h-24.43c.66,5.19,3.55,8.41,8.6,8.41,3.48,0,5.52-1.58,6.5-4.14h8.8c-1.25,5.98-6.57,11.03-15.24,11.03-11.17,0-17.47-7.82-17.47-17.86Zm8.93-3.61h14.97c-.26-4.27-3.09-7.22-7.16-7.22-4.73,0-7.03,2.82-7.82,7.22Z"/><path class="cls-1" d="m557.31,34.29h.2c2.04-3.81,4.33-5.78,8.27-5.78.98,0,1.58.07,2.1.26v7.82h-.2c-5.85-.59-10.05,2.5-10.05,9.59v16.42h-8.93V28.9h8.6v5.38Z"/><path class="cls-1" d="m568.48,45.78c0-10.05,6.57-17.8,16.81-17.8,8.73,0,14.12,5.06,15.3,12.35h-8.73c-.59-2.96-2.89-5.19-6.17-5.19-5.38,0-8.14,4.14-8.14,10.64s2.56,10.64,8.01,10.64c3.61,0,6.17-1.9,6.76-5.71h8.6c-.59,7.16-6.17,12.87-15.17,12.87-10.64,0-17.27-7.75-17.27-17.8Z"/><path class="cls-1" d="m602.5,45.71c0-9.98,6.76-17.73,16.62-17.73,10.84,0,16.62,8.28,16.62,20.29h-24.43c.66,5.19,3.55,8.41,8.6,8.41,3.48,0,5.52-1.58,6.5-4.14h8.8c-1.25,5.98-6.57,11.03-15.24,11.03-11.17,0-17.47-7.82-17.47-17.86Zm8.93-3.61h14.97c-.26-4.27-3.09-7.22-7.16-7.22-4.73,0-7.03,2.82-7.82,7.22Z"/></svg>