<?xml version="1.0" encoding="utf-8"?>
<!-- Generator: Adobe Illustrator 27.7.0, SVG Export Plug-In . SVG Version: 6.00 Build 0)  -->
<svg version="1.1" id="Layer_1" xmlns="http://www.w3.org/2000/svg" xmlns:xlink="http://www.w3.org/1999/xlink" x="0px" y="0px"
	 viewBox="0 0 881 80" width="881" height="80" style="enable-background:new 0 0 881 80;" xml:space="preserve">
<style type="text/css">
	.st0{fill:#FCAF00;}
	.st1{fill:#00E25A;}
	.st2{fill:#3B88FF;}
</style>
<path d="M107.9,55.8c-6.7,0-9.9-2.2-10.6-7.9H88c0.3,9.9,7.6,15.6,20.3,15.6c10.6,0,18.3-5.3,18.3-14.8c0-10.1-7.9-12.4-17.5-14.5
	c-6.9-1.5-10.2-2.6-10.2-6.4c0-3.4,3.4-5.5,8.5-5.5c4.9,0,8.5,2.4,9.1,7.1h9.1c-0.7-9.5-7.6-14.6-18.1-14.6c-10.4,0-18,4.8-18,14.1
	c0,9.8,7.7,12,16.1,13.9c7.2,1.6,11.6,2.6,11.6,7.2C117,54.1,112.7,55.8,107.9,55.8"/>
<path d="M153.1,62.5h8.9v-22c0-7.4-4.7-12.6-11.6-12.6c-4.6,0-7.3,1.8-9.8,5.3h-0.2V15.5h-8.9v47h8.9V43.4c0-4.6,2.9-7.7,6.8-7.7
	c3.7,0,5.8,2.6,5.8,6.2v20.6H153.1z"/>
<path d="M183.5,34.6c5.5,0,8.5,4.5,8.5,11c0,6.6-3.1,11-8.5,11c-5.5,0-8.5-4.4-8.5-11C175,39.1,178,34.6,183.5,34.6 M183.5,63.5
	c10.5,0,17.6-7.8,17.6-17.8s-7.2-17.8-17.6-17.8c-10.4,0-17.6,7.8-17.6,17.8S173.1,63.5,183.5,63.5"/>
<path d="M222.2,56c-5.3,0-8.1-4-8.1-10.1c0-6,2.2-10.8,7.8-10.8c5.5,0,7.7,4.5,7.7,10.8C229.6,52.3,226.7,56,222.2,56 M224,27.8
	c-4.6,0-7.7,2.2-9.9,5.1h-0.2v-4.2h-8.6v44.7h8.9V58.7h0.1c1.9,2.9,5,4.8,9.7,4.8c8.7,0,14.6-6.9,14.6-17.8
	C238.6,35.1,232.9,27.8,224,27.8"/>
<path d="M278.4,34.7c4.1,0,6.9,3,7.2,7.2h-15C271.4,37.6,273.7,34.7,278.4,34.7 M285.6,52.4c-1,2.6-3,4.1-6.5,4.1
	c-5.1,0-8-3.2-8.6-8.4h24.4c0-12-5.8-20.3-16.6-20.3c-9.9,0-16.6,7.8-16.6,17.7c0,10.1,6.3,17.9,17.5,17.9c8.7,0,14-5.1,15.2-11
	H285.6z"/>
<path d="M296.4,28.8v5.9h4.7v19.8c0,6.4,4.8,8.1,9.1,8.1c3.5,0,5.6-0.1,5.6-0.1v-6.6c0,0-1.5,0.1-2.6,0.1c-2,0-3.4-0.9-3.4-3.4V34.7
	h5.8v-5.9h-7.8c0,0,1.6-0.9,2-3.2v-7.3h-8.7v6.1C300.9,28.1,296.4,28.8,296.4,28.8L296.4,28.8L296.4,28.8z"/>
<path d="M239.8,28.8v5.9h4.7v19.8c0,6.4,4.8,8.1,9.1,8.1c3.5,0,5.6-0.1,5.6-0.1v-6.6c0,0-1.5,0.1-2.6,0.1c-2,0-3.4-0.9-3.4-3.4V34.7
	h5.8v-5.9h-7.8c0,0,1.6-0.9,2-3.2v-7.3h-8.7v6.1C244.4,28.1,239.8,28.8,239.8,28.8L239.8,28.8L239.8,28.8z"/>
<g>
	<rect x="16.9" y="0" class="st0" width="28.9" height="28.9"/>
	<rect y="33.7" class="st1" width="28.9" height="28.9"/>
	<rect x="33.7" y="33.7" class="st2" width="28.9" height="28.9"/>
</g>
<g>
	<path d="M331.2,39.3c0-13.9,8.7-24.6,22.5-24.6c11.6,0,18.4,6.9,19.4,15.8h-9.5c-0.9-4.7-4.4-7.8-9.9-7.8
		c-8.7,0-12.8,7.2-12.8,16.5c0,9.6,5,16.5,12.9,16.5c5.6,0,9.5-3.3,10.1-8.3h9.3c-0.3,4.1-2,8.1-5.2,11.1s-7.7,5-14.3,5
		C340.6,63.6,331.2,53.4,331.2,39.3z M357.9,13.1h-9.6L342,5.7h7.7l3.2,3.7h0.1l3.2-3.7h7.8L357.9,13.1z"/>
	<path d="M375.5,45.7c0-10,6.8-17.7,16.6-17.7c10.8,0,16.6,8.3,16.6,20.3h-24.4c0.7,5.2,3.5,8.4,8.6,8.4c3.5,0,5.5-1.6,6.5-4.1h8.8
		c-1.2,6-6.6,11-15.2,11C381.8,63.6,375.5,55.8,375.5,45.7z M384.4,42.1h15c-0.3-4.3-3.1-7.2-7.2-7.2
		C387.5,34.9,385.2,37.7,384.4,42.1z"/>
	<path d="M410.1,51.7h8.3c0.6,3.9,3.3,5.6,7.4,5.6c3.9,0,6.2-1.5,6.2-3.9c0-3.2-4.3-3.5-8.9-4.5c-6-1.2-12-2.8-12-10.2
		c0-7.3,6-10.8,13.7-10.8c8.9,0,13.8,4.4,14.4,11.2h-8.1c-0.4-3.6-2.7-4.9-6.5-4.9c-3.5,0-5.8,1.3-5.8,3.7c0,2.9,4.5,3.2,9.3,4.1
		c5.6,1.2,11.9,2.8,11.9,10.6c0,6.8-5.8,10.8-14.2,10.8C416.1,63.6,410.6,58.8,410.1,51.7z"/>
	<path d="M456.2,47.2l-3.9,4v11.4h-8.9v-47h8.9v26l12-12.7H475l-12.4,12.8l13.9,20.9h-10.8L456.2,47.2z"/>
	<path d="M497.8,58.8h-0.1c-1.7,2.6-4.1,4.5-9.9,4.5c-6.9,0-11.8-3.6-11.8-10.3c0-7.4,6-9.8,13.5-10.8c5.6-0.8,8.1-1.2,8.1-3.8
		c0-2.4-1.9-4-5.6-4c-4.2,0-6.2,1.5-6.5,4.7h-7.9c0.3-5.9,4.7-11.1,14.5-11.1c10.1,0,14.2,4.5,14.2,12.4v17.1c0,2.6,0.4,4.1,1.2,4.7
		v0.3h-8.6C498.3,61.9,498,60.4,497.8,58.8z M497.9,50.7v-5.1c-1.6,0.9-4,1.4-6.2,2c-4.7,1.1-7,2.1-7,5.3s2.1,4.3,5.3,4.3
		C495,57.1,497.9,54,497.9,50.7z M495.6,24.7h-7l3.6-9.3h10.4L495.6,24.7z"/>
	<path d="M520,45.7c0-10,6.8-17.7,16.6-17.7c10.8,0,16.6,8.3,16.6,20.3h-24.4c0.7,5.2,3.5,8.4,8.6,8.4c3.5,0,5.5-1.6,6.5-4.1h8.8
		c-1.2,6-6.6,11-15.2,11C526.3,63.6,520,55.8,520,45.7z M528.9,42.1h15c-0.3-4.3-3.1-7.2-7.2-7.2C532,34.9,529.7,37.7,528.9,42.1z"
		/>
	<path d="M556.1,42.5h17.8v7.7h-17.8V42.5z"/>
	<path d="M576.7,45.8c0-10,6.6-17.8,16.8-17.8c8.7,0,14.1,5.1,15.3,12.3h-8.7c-0.6-3-2.9-5.2-6.2-5.2c-5.4,0-8.1,4.1-8.1,10.6
		c0,6.4,2.6,10.6,8,10.6c3.6,0,6.2-1.9,6.8-5.7h8.6c-0.6,7.2-6.2,12.9-15.2,12.9C583.3,63.6,576.7,55.8,576.7,45.8z"/>
	<path d="M610.7,45.8c0-10,7.2-17.8,17.6-17.8s17.6,7.8,17.6,17.8s-7.2,17.8-17.6,17.8S610.7,55.8,610.7,45.8z M636.8,45.8
		c0-6.6-3.1-11-8.5-11c-5.5,0-8.5,4.5-8.5,11s3,11,8.5,11C633.8,56.7,636.8,52.3,636.8,45.8z"/>
	<path d="M649.4,28.9h8.6v4.5h0.2c1.8-3.1,5.1-5.5,9.8-5.5c4.3,0,7.7,2.4,9.3,5.9h0.1c2.3-3.7,5.8-5.9,10.1-5.9
		c7.1,0,11.1,4.6,11.1,12v22.7h-8.9V41.4c0-3.8-1.9-5.8-5.2-5.8c-3.7,0-6,2.9-6,7.4v19.6h-8.9V41.4c0-3.8-1.9-5.8-5.2-5.8
		c-3.6,0-6,2.9-6,7.4v19.6h-8.9L649.4,28.9L649.4,28.9z"/>
	<path d="M703.5,28.9h8.6v4.5h0.2c1.8-3.1,5.1-5.5,9.8-5.5c4.3,0,7.7,2.4,9.3,5.9h0.1c2.3-3.7,5.8-5.9,10.1-5.9
		c7.1,0,11.1,4.6,11.1,12v22.7h-8.9V41.4c0-3.8-1.9-5.8-5.2-5.8c-3.7,0-6,2.9-6,7.4v19.6h-8.9V41.4c0-3.8-1.9-5.8-5.2-5.8
		c-3.6,0-6,2.9-6,7.4v19.6h-8.9L703.5,28.9L703.5,28.9z"/>
	<path d="M756,45.7c0-10,6.8-17.7,16.6-17.7c10.8,0,16.6,8.3,16.6,20.3h-24.4c0.7,5.2,3.5,8.4,8.6,8.4c3.5,0,5.5-1.6,6.5-4.1h8.8
		c-1.2,6-6.6,11-15.2,11C762.3,63.6,756,55.8,756,45.7z M764.9,42.1h15c-0.3-4.3-3.1-7.2-7.2-7.2C768,34.9,765.7,37.7,764.9,42.1z"
		/>
	<path d="M801.3,34.3h0.2c2-3.8,4.3-5.8,8.3-5.8c1,0,1.6,0.1,2.1,0.3v7.8h-0.2c-5.8-0.6-10,2.5-10,9.6v16.4h-8.9V28.9h8.6
		L801.3,34.3L801.3,34.3z"/>
	<path d="M812.5,45.8c0-10,6.6-17.8,16.8-17.8c8.7,0,14.1,5.1,15.3,12.3h-8.7c-0.6-3-2.9-5.2-6.2-5.2c-5.4,0-8.1,4.1-8.1,10.6
		c0,6.4,2.6,10.6,8,10.6c3.6,0,6.2-1.9,6.8-5.7h8.6c-0.6,7.2-6.2,12.9-15.2,12.9C819.1,63.6,812.5,55.8,812.5,45.8z"/>
	<path d="M846.5,45.7c0-10,6.8-17.7,16.6-17.7c10.8,0,16.6,8.3,16.6,20.3h-24.4c0.7,5.2,3.5,8.4,8.6,8.4c3.5,0,5.5-1.6,6.5-4.1h8.8
		c-1.2,6-6.6,11-15.2,11C852.8,63.6,846.5,55.8,846.5,45.7z M855.4,42.1h15c-0.3-4.3-3.1-7.2-7.2-7.2
		C858.5,34.9,856.2,37.7,855.4,42.1z"/>
</g>
</svg>
