<?xml version="1.0" encoding="UTF-8" standalone="no"?>
<!DOCTYPE svg PUBLIC "-//W3C//DTD SVG 1.1//EN" "http://www.w3.org/Graphics/SVG/1.1/DTD/svg11.dtd">
<svg width="100%" height="100%" viewBox="0 0 283 73" version="1.1" xmlns="http://www.w3.org/2000/svg" xmlns:xlink="http://www.w3.org/1999/xlink" xml:space="preserve" xmlns:serif="http://www.serif.com/" style="fill-rule:evenodd;clip-rule:evenodd;stroke-linejoin:round;stroke-miterlimit:2;">
    <g id="Layer-1" serif:id="Layer 1" transform="matrix(1,0,0,1,-85.04,-90.572)">
        <g transform="matrix(-1,0,0,1,234.352,-44.31)">
            <rect x="102.344" y="134.882" width="29.664" height="29.664" style="fill:rgb(252,175,0);"/>
        </g>
        <g transform="matrix(-1,0,0,1,199.744,24.888)">
            <rect x="85.04" y="100.283" width="29.664" height="29.664" style="fill:rgb(0,226,90);"/>
        </g>
        <g transform="matrix(-1,0,0,1,268.96,24.888)">
            <rect x="119.648" y="100.283" width="29.664" height="29.664" style="fill:rgb(59,136,255);"/>
        </g>
        <g transform="matrix(1,0,0,1,185.45,119.493)">
            <path d="M0,29.497C-5.906,29.497 -8.737,27.534 -9.315,22.556L-17.518,22.556C-17.23,31.293 -10.867,36.255 0.35,36.255C9.65,36.255 16.423,31.583 16.423,23.196C16.423,14.292 9.482,12.267 0.974,10.411C-5.145,9.087 -8.036,8.097 -8.036,4.749C-8.036,1.796 -5.084,-0.106 -0.579,-0.106C3.698,-0.106 6.941,1.964 7.397,6.134L15.433,6.134C14.795,-2.192 8.782,-6.758 -0.517,-6.758C-9.71,-6.758 -16.362,-2.541 -16.362,5.617C-16.362,14.231 -9.603,16.195 -2.207,17.869C4.11,19.315 8.036,20.121 8.036,24.17C8.036,27.99 4.277,29.497 0,29.497" style="fill-rule:nonzero;"/>
        </g>
        <g transform="matrix(1,0,0,1,225.297,113.482)">
            <path d="M0,41.353L7.869,41.353L7.869,21.978C7.869,15.494 3.759,10.867 -2.375,10.867C-6.423,10.867 -8.843,12.434 -10.99,15.554L-11.157,15.554L-11.157,0L-19.026,0L-19.026,41.353L-11.157,41.353L-11.157,24.519C-11.157,20.471 -8.615,17.701 -5.145,17.701C-1.858,17.701 0,19.953 0,23.134L0,41.353Z" style="fill-rule:nonzero;"/>
        </g>
        <g transform="matrix(1,0,0,1,252.069,124.348)">
            <path d="M0,31.354C9.208,31.354 15.509,24.52 15.509,15.677C15.509,6.834 9.208,0 0,0C-9.193,0 -15.494,6.834 -15.494,15.677C-15.494,24.52 -9.193,31.354 0,31.354M0,5.967C4.809,5.967 7.518,9.894 7.518,15.677C7.518,21.461 4.809,25.327 0,25.327C-4.856,25.327 -7.519,21.461 -7.519,15.677C-7.519,9.894 -4.856,5.967 0,5.967" style="fill-rule:nonzero;"/>
        </g>
        <g transform="matrix(1,0,0,1,287.7,164.546)">
            <path d="M0,-40.197C-4.048,-40.197 -6.819,-38.279 -8.736,-35.677L-8.904,-35.677L-8.904,-39.375L-16.484,-39.375L-16.484,0L-8.615,0L-8.615,-13.074L-8.493,-13.074C-6.819,-10.533 -4.11,-8.843 0.06,-8.843C7.701,-8.843 12.892,-14.916 12.892,-24.52C12.892,-33.774 7.869,-40.197 0,-40.197M-1.614,-15.388C-6.302,-15.388 -8.782,-18.904 -8.782,-24.292C-8.782,-29.604 -6.819,-33.835 -1.903,-33.835C2.952,-33.835 4.916,-29.893 4.916,-24.292C4.916,-18.675 2.374,-15.388 -1.614,-15.388" style="fill-rule:nonzero;"/>
        </g>
        <g transform="matrix(1,0,0,1,341.899,134.074)">
            <path d="M0,11.903C-0.867,14.17 -2.664,15.556 -5.722,15.556C-10.182,15.556 -12.724,12.724 -13.302,8.144L8.205,8.144C8.205,-2.434 3.121,-9.725 -6.423,-9.725C-15.098,-9.725 -21.05,-2.892 -21.05,5.891C-21.05,14.749 -15.509,21.628 -5.677,21.628C1.963,21.628 6.651,17.169 7.747,11.903L0,11.903ZM-6.301,-3.653C-2.724,-3.653 -0.244,-1.05 0,2.71L-13.196,2.71C-12.496,-1.156 -10.471,-3.653 -6.301,-3.653" style="fill-rule:nonzero;"/>
        </g>
        <g transform="matrix(1,0,0,1,351.442,145.627)">
            <path d="M0,-20.456L0,-15.25L4.11,-15.25L4.11,2.146C4.11,7.763 8.326,9.254 12.145,9.254C15.267,9.254 17.061,9.148 17.061,9.148L17.061,3.364C17.061,3.364 15.722,3.424 14.748,3.424C13.013,3.424 11.796,2.664 11.796,0.471L11.796,-15.25L16.88,-15.25L16.88,-20.456L10.03,-20.456C10.03,-20.456 11.476,-21.278 11.796,-23.241L11.796,-29.71L4.11,-29.71L4.11,-24.343C3.992,-21.076 -0.001,-20.463 -0.001,-20.463L0.011,-20.456L0,-20.456Z" style="fill-rule:nonzero;"/>
        </g>
        <g transform="matrix(1,0,0,1,301.642,145.627)">
            <path d="M0,-20.456L0,-15.25L4.11,-15.25L4.11,2.146C4.11,7.763 8.326,9.254 12.145,9.254C15.267,9.254 17.061,9.148 17.061,9.148L17.061,3.364C17.061,3.364 15.722,3.424 14.748,3.424C13.013,3.424 11.796,2.664 11.796,0.471L11.796,-15.25L16.88,-15.25L16.88,-20.456L10.03,-20.456C10.03,-20.456 11.476,-21.278 11.796,-23.241L11.796,-29.71L4.11,-29.71L4.11,-24.343C3.992,-21.076 -0.001,-20.463 -0.001,-20.463L0.011,-20.456L0,-20.456Z" style="fill-rule:nonzero;"/>
        </g>
    </g>
</svg>
