<?xml version="1.0" encoding="UTF-8"?>
<svg width="66.986mm" height="7.4943mm" version="1.1" viewBox="0 0 66.985863 7.4943051" xmlns="http://www.w3.org/2000/svg" xmlns:cc="http://creativecommons.org/ns#" xmlns:dc="http://purl.org/dc/elements/1.1/" xmlns:rdf="http://www.w3.org/1999/02/22-rdf-syntax-ns#">
<defs>
<clipPath id="a">
<path d="M 0,22.667 H 191.333 V 0 H 0 Z"/>
</clipPath>
</defs>
<metadata>
<rdf:RDF>
<cc:Work rdf:about="">
<dc:format>image/svg+xml</dc:format>
<dc:type rdf:resource="http://purl.org/dc/dcmitype/StillImage"/>
<dc:title/>
</cc:Work>
</rdf:RDF>
</metadata>
<g transform="translate(-126.43 -106.01)">
<g transform="matrix(.35278 0 0 -.35278 126.31 113.83)">
<g clip-path="url(#a)">
<g transform="translate(29.988 12.68)">
<path d="m0 0h-1.243l-2.594 2.299h1.619l1.574-1.36 1.639 1.36h1.661zm3.89-3.783-0.993-0.617c-0.857 1.138-2.027 1.709-3.51 1.709-1.185 0-2.169-0.382-2.952-1.144-0.784-0.763-1.175-1.688-1.175-2.778 0-0.709 0.18-1.376 0.54-2.001 0.361-0.626 0.855-1.112 1.483-1.456 0.629-0.346 1.333-0.519 2.113-0.519 1.429 0 2.596 0.569 3.501 1.708l0.993-0.652c-0.465-0.701-1.089-1.244-1.873-1.63-0.785-0.387-1.677-0.579-2.679-0.579-1.538 0-2.814 0.488-3.828 1.467-1.013 0.977-1.52 2.167-1.52 3.568 0 0.941 0.237 1.816 0.711 2.624 0.474 0.809 1.125 1.438 1.954 1.892 0.829 0.453 1.756 0.679 2.782 0.679 0.644 0 1.265-0.097 1.864-0.295 0.599-0.196 1.108-0.453 1.525-0.768 0.417-0.317 0.772-0.719 1.064-1.208" fill="#90d12a"/>
</g>
<g transform="translate(44.019 7.0363)">
<path d="m0 0c-0.167 0.668-0.411 1.202-0.73 1.602-0.319 0.399-0.742 0.72-1.267 0.965s-1.078 0.367-1.656 0.367c-0.956 0-1.777-0.307-2.463-0.921-0.502-0.448-0.881-1.118-1.137-2.013zm0-2.62 1.055-0.555c-0.346-0.679-0.745-1.228-1.199-1.645s-0.964-0.735-1.531-0.952c-0.567-0.218-1.209-0.327-1.925-0.327-1.587 0-2.828 0.52-3.723 1.561-0.896 1.04-1.343 2.216-1.343 3.528 0 1.234 0.378 2.334 1.137 3.3 0.96 1.229 2.246 1.842 3.858 1.842 1.659 0 2.984-0.629 3.974-1.887 0.704-0.889 1.062-1.997 1.074-3.327h-8.755c0.024-1.13 0.385-2.057 1.083-2.779 0.698-0.723 1.561-1.084 2.588-1.084 0.495 0 0.978 0.086 1.446 0.258 0.469 0.172 0.867 0.401 1.195 0.686 0.329 0.285 0.684 0.745 1.066 1.381" fill="#90d12a"/>
</g>
<g transform="translate(52.165 9.8537)">
<path d="m0 0-0.805-0.832c-0.67 0.65-1.324 0.976-1.964 0.976-0.406 0-0.754-0.135-1.044-0.403s-0.435-0.582-0.435-0.939c0-0.317 0.12-0.617 0.358-0.904 0.24-0.292 0.742-0.634 1.506-1.028 0.932-0.483 1.566-0.948 1.9-1.395 0.329-0.454 0.493-0.963 0.493-1.53 0-0.799-0.28-1.475-0.842-2.03s-1.263-0.831-2.105-0.831c-0.561 0-1.097 0.122-1.607 0.366-0.511 0.244-0.934 0.581-1.268 1.011l0.787 0.894c0.639-0.721 1.318-1.082 2.035-1.082 0.502 0 0.929 0.161 1.282 0.483 0.352 0.322 0.529 0.7 0.529 1.136 0 0.358-0.117 0.676-0.35 0.957-0.233 0.274-0.759 0.62-1.577 1.037-0.879 0.453-1.476 0.9-1.793 1.342-0.316 0.441-0.475 0.945-0.475 1.511 0 0.74 0.252 1.354 0.757 1.842 0.505 0.489 1.142 0.733 1.913 0.733 0.895 0 1.797-0.437 2.705-1.314" fill="#90d12a"/>
</g>
<g transform="translate(53.917 14.674)">
<path d="m0 0h1.252v-7.683l4.51 3.927h1.84l-5.35-4.641 5.662-5.089h-1.762l-4.9 4.381v-4.381h-1.252z" fill="#90d12a"/>
</g>
<g transform="translate(68.116 15.48)">
<path d="m0 0h1.923l-2.639-2.755h-1.233zm-0.765-5.519c-0.696 0-1.339-0.17-1.929-0.513s-1.059-0.823-1.408-1.443c-0.347-0.62-0.522-1.274-0.522-1.965 0-0.685 0.176-1.34 0.527-1.965 0.352-0.626 0.824-1.113 1.416-1.461 0.593-0.349 1.229-0.523 1.908-0.523 0.684 0 1.334 0.173 1.947 0.519 0.613 0.345 1.085 0.812 1.416 1.402 0.33 0.589 0.496 1.253 0.496 1.992 0 1.125-0.371 2.067-1.112 2.823-0.743 0.757-1.655 1.134-2.739 1.134m5.004 0.957v-9.73h-1.234v1.673c-0.525-0.639-1.113-1.118-1.766-1.441-0.653-0.322-1.367-0.482-2.142-0.482-1.377 0-2.554 0.499-3.529 1.498-0.974 0.998-1.462 2.213-1.462 3.644 0 1.401 0.493 2.599 1.476 3.595s2.167 1.493 3.551 1.493c0.799 0 1.521-0.169 2.169-0.509 0.646-0.34 1.215-0.85 1.703-1.53v1.789z" fill="#90d12a"/>
</g>
<g transform="translate(87.519 7.0363)">
<path d="m0 0c-0.167 0.668-0.41 1.202-0.729 1.602-0.32 0.399-0.742 0.72-1.267 0.965s-1.078 0.367-1.657 0.367c-0.955 0-1.776-0.307-2.462-0.921-0.502-0.448-0.881-1.118-1.138-2.013zm0-2.62 1.056-0.555c-0.346-0.679-0.746-1.228-1.2-1.645s-0.963-0.735-1.531-0.952c-0.566-0.218-1.208-0.327-1.925-0.327-1.587 0-2.828 0.52-3.723 1.561-0.895 1.04-1.343 2.216-1.343 3.528 0 1.234 0.379 2.334 1.137 3.3 0.961 1.229 2.247 1.842 3.858 1.842 1.659 0 2.984-0.629 3.975-1.887 0.704-0.889 1.062-1.997 1.074-3.327h-8.756c0.024-1.13 0.385-2.057 1.083-2.779 0.699-0.723 1.562-1.084 2.588-1.084 0.496 0 0.978 0.086 1.446 0.258 0.469 0.172 0.867 0.401 1.196 0.686s0.683 0.745 1.065 1.381" fill="#5f9a3c"/>
</g>
<path d="m89.96 6.679h4.919v-1.091h-4.919z" fill="#5f9a3c"/>
<g transform="translate(105.84 8.8967)">
<path d="m0 0-0.993-0.617c-0.858 1.138-2.028 1.709-3.511 1.709-1.185 0-2.169-0.382-2.952-1.144s-1.175-1.688-1.175-2.778c0-0.709 0.18-1.376 0.54-2.001 0.361-0.626 0.856-1.111 1.484-1.456 0.628-0.346 1.332-0.519 2.112-0.519 1.43 0 2.597 0.57 3.502 1.708l0.993-0.652c-0.466-0.701-1.09-1.244-1.874-1.63-0.784-0.387-1.677-0.579-2.679-0.579-1.538 0-2.814 0.488-3.828 1.467-1.014 0.977-1.519 2.167-1.519 3.568 0 0.942 0.236 1.817 0.711 2.624 0.473 0.809 1.125 1.439 1.954 1.892 0.828 0.453 1.756 0.679 2.781 0.679 0.643 0 1.266-0.097 1.864-0.294 0.6-0.197 1.108-0.454 1.526-0.769 0.417-0.316 0.771-0.719 1.064-1.208" fill="#5f9a3c"/>
</g>
<g transform="translate(112.39 9.9436)">
<path d="m0 0c-1.042 0-1.937-0.385-2.684-1.154-0.748-0.769-1.122-1.7-1.122-2.79 0-0.703 0.17-1.36 0.512-1.968 0.341-0.608 0.802-1.077 1.382-1.408s1.218-0.496 1.912-0.496c0.693 0 1.331 0.165 1.911 0.496s1.041 0.8 1.382 1.408c0.342 0.608 0.512 1.265 0.512 1.968 0 1.09-0.375 2.021-1.126 2.79s-1.645 1.154-2.679 1.154m4e-3 1.225c1.499 0 2.741-0.542 3.727-1.627 0.896-0.991 1.344-2.162 1.344-3.515 0-1.359-0.473-2.548-1.42-3.564-0.947-1.017-2.164-1.525-3.651-1.525-1.493 0-2.713 0.508-3.66 1.525-0.947 1.016-1.42 2.205-1.42 3.564 0 1.347 0.448 2.516 1.344 3.506 0.986 1.091 2.231 1.636 3.736 1.636" fill="#5f9a3c"/>
</g>
<g transform="translate(119.32 10.918)">
<path d="m0 0h1.252v-1.682c0.435 0.62 0.883 1.074 1.343 1.36 0.633 0.382 1.298 0.572 1.997 0.572 0.47 0 0.919-0.092 1.343-0.276 0.423-0.186 0.769-0.432 1.038-0.739 0.268-0.307 0.502-0.747 0.699-1.319 0.416 0.764 0.936 1.343 1.56 1.739 0.625 0.397 1.297 0.595 2.017 0.595 0.673 0 1.266-0.17 1.78-0.51 0.515-0.34 0.897-0.813 1.147-1.422 0.25-0.607 0.375-1.52 0.375-2.736v-5.312h-1.28v5.312c0 1.043-0.074 1.76-0.222 2.15-0.149 0.391-0.403 0.706-0.763 0.945-0.359 0.238-0.788 0.357-1.287 0.357-0.606 0-1.161-0.179-1.663-0.537-0.502-0.357-0.869-0.834-1.101-1.431-0.231-0.595-0.347-1.591-0.347-2.987v-3.809h-1.252v4.981c0 1.175-0.074 1.972-0.22 2.393-0.145 0.419-0.4 0.756-0.765 1.01-0.363 0.253-0.796 0.38-1.297 0.38-0.578 0-1.119-0.175-1.623-0.523-0.503-0.349-0.876-0.819-1.117-1.408-0.242-0.591-0.362-1.495-0.362-2.71v-4.123h-1.252z" fill="#5f9a3c"/>
</g>
<g transform="translate(136.04 10.918)">
<path d="m0 0h1.252v-1.682c0.435 0.62 0.883 1.074 1.343 1.36 0.633 0.382 1.298 0.572 1.997 0.572 0.47 0 0.919-0.092 1.343-0.276 0.423-0.186 0.769-0.432 1.038-0.739 0.268-0.307 0.502-0.747 0.699-1.319 0.416 0.764 0.936 1.343 1.56 1.739 0.625 0.397 1.297 0.595 2.017 0.595 0.673 0 1.266-0.17 1.78-0.51 0.515-0.34 0.897-0.813 1.147-1.422 0.25-0.607 0.375-1.52 0.375-2.736v-5.312h-1.28v5.312c0 1.043-0.074 1.76-0.222 2.15-0.149 0.391-0.403 0.706-0.763 0.945-0.359 0.238-0.788 0.357-1.287 0.357-0.606 0-1.161-0.179-1.663-0.537-0.502-0.357-0.869-0.834-1.101-1.431-0.231-0.595-0.347-1.591-0.347-2.987v-3.809h-1.252v4.981c0 1.175-0.074 1.972-0.22 2.393-0.145 0.419-0.4 0.756-0.765 1.01-0.363 0.253-0.796 0.38-1.297 0.38-0.578 0-1.119-0.175-1.623-0.523-0.503-0.349-0.876-0.819-1.117-1.408-0.242-0.591-0.362-1.495-0.362-2.71v-4.123h-1.252z" fill="#5f9a3c"/>
</g>
<g transform="translate(160.96 7.0363)">
<path d="m0 0c-0.167 0.668-0.41 1.202-0.729 1.602-0.32 0.399-0.742 0.72-1.267 0.965s-1.078 0.367-1.657 0.367c-0.955 0-1.776-0.307-2.462-0.921-0.502-0.448-0.881-1.118-1.138-2.013zm0-2.62 1.056-0.555c-0.346-0.679-0.746-1.228-1.2-1.645s-0.963-0.735-1.531-0.952c-0.566-0.218-1.208-0.327-1.925-0.327-1.587 0-2.828 0.52-3.723 1.561-0.895 1.04-1.343 2.216-1.343 3.528 0 1.234 0.379 2.334 1.137 3.3 0.961 1.229 2.247 1.842 3.858 1.842 1.659 0 2.984-0.629 3.975-1.887 0.704-0.889 1.062-1.997 1.074-3.327h-8.756c0.024-1.13 0.385-2.057 1.083-2.779 0.699-0.723 1.562-1.084 2.588-1.084 0.496 0 0.978 0.086 1.446 0.258 0.469 0.172 0.867 0.401 1.196 0.686s0.683 0.745 1.065 1.381" fill="#5f9a3c"/>
</g>
<g transform="translate(163.74 10.918)">
<path d="m0 0h1.279v-1.422c0.382 0.561 0.784 0.98 1.207 1.257 0.424 0.276 0.865 0.415 1.325 0.415 0.345 0 0.714-0.11 1.108-0.33l-0.652-1.056c-0.263 0.114-0.484 0.17-0.663 0.17-0.416 0-0.82-0.172-1.207-0.514-0.387-0.343-0.683-0.875-0.885-1.596-0.156-0.555-0.233-1.676-0.233-3.363v-3.291h-1.279z" fill="#5f9a3c"/>
</g>
<g transform="translate(178.71 8.8967)">
<path d="m0 0-0.993-0.617c-0.858 1.138-2.028 1.709-3.511 1.709-1.185 0-2.169-0.382-2.952-1.144s-1.175-1.688-1.175-2.778c0-0.709 0.18-1.376 0.54-2.001 0.361-0.626 0.856-1.111 1.484-1.456 0.628-0.346 1.332-0.519 2.112-0.519 1.43 0 2.597 0.57 3.502 1.708l0.993-0.652c-0.466-0.701-1.09-1.244-1.874-1.63-0.784-0.387-1.677-0.579-2.679-0.579-1.538 0-2.814 0.488-3.828 1.467-1.014 0.977-1.519 2.167-1.519 3.568 0 0.942 0.236 1.817 0.711 2.624 0.473 0.809 1.125 1.439 1.954 1.892 0.828 0.453 1.756 0.679 2.781 0.679 0.643 0 1.266-0.097 1.864-0.294 0.6-0.197 1.108-0.454 1.526-0.769 0.417-0.316 0.771-0.719 1.064-1.208" fill="#5f9a3c"/>
</g>
<g transform="translate(188.85 7.0363)">
<path d="m0 0c-0.167 0.668-0.41 1.202-0.729 1.602-0.32 0.399-0.742 0.72-1.267 0.965s-1.078 0.367-1.657 0.367c-0.955 0-1.776-0.307-2.462-0.921-0.502-0.448-0.881-1.118-1.138-2.013zm0-2.62 1.056-0.555c-0.346-0.679-0.746-1.228-1.2-1.645s-0.963-0.735-1.531-0.952c-0.566-0.218-1.208-0.327-1.925-0.327-1.587 0-2.828 0.52-3.723 1.561-0.895 1.04-1.343 2.216-1.343 3.528 0 1.234 0.379 2.334 1.137 3.3 0.961 1.229 2.247 1.842 3.858 1.842 1.659 0 2.984-0.629 3.975-1.887 0.704-0.889 1.062-1.997 1.074-3.327h-8.756c0.024-1.13 0.385-2.057 1.083-2.779 0.699-0.723 1.562-1.084 2.588-1.084 0.496 0 0.978 0.086 1.446 0.258 0.469 0.172 0.867 0.401 1.196 0.686s0.683 0.745 1.065 1.381" fill="#5f9a3c"/>
</g>
<path d="m0.347 11.344h10.167v-10.168h-10.167z" fill="#90d12a"/>
<path d="m11.183 11.344h10.167v-10.168h-10.167z" fill="#4fb4e9"/>
<path d="m5.698 22.181h10.167v-10.168h-10.167z" fill="#f79528"/>
</g>
</g>
</g>
</svg>
