<?xml version="1.0" encoding="UTF-8" standalone="no"?>
<!DOCTYPE svg PUBLIC "-//W3C//DTD SVG 1.1//EN" "http://www.w3.org/Graphics/SVG/1.1/DTD/svg11.dtd">
<svg width="100%" height="100%" viewBox="0 0 500 56" version="1.1" xmlns="http://www.w3.org/2000/svg" xmlns:xlink="http://www.w3.org/1999/xlink" xml:space="preserve" xmlns:serif="http://www.serif.com/" style="fill-rule:evenodd;clip-rule:evenodd;stroke-linejoin:round;stroke-miterlimit:2;">
    <g transform="matrix(1,0,0,1,0,-21.6)">
        <g transform="matrix(1.10468,0,0,1.10468,-26.1699,-5.23266)">
            <rect x="37.54" y="24.29" width="23.73" height="23.73" style="fill:rgb(252,175,0);"/>
        </g>
        <g transform="matrix(1.10468,0,0,1.10468,-26.1699,-5.23266)">
            <rect x="23.69" y="51.98" width="23.73" height="23.73" style="fill:rgb(0,226,90);"/>
        </g>
        <g transform="matrix(1.10468,0,0,1.10468,-26.1699,-5.23266)">
            <rect x="51.38" y="51.98" width="23.73" height="23.73" style="fill:rgb(59,136,255);"/>
        </g>
    </g>
    <g transform="matrix(1,0,0,1,0,-21.6)">
        <g transform="matrix(1.10468,0,0,1.10468,-26.1699,-5.23266)">
            <path d="M89.99,53.03C89.99,43.39 95.77,35.91 105.55,35.91C113.21,35.91 117.85,40.32 118.72,46.38L114.68,46.38C113.9,42.29 110.64,39.49 105.46,39.49C98.26,39.49 94.22,45.32 94.22,53.03C94.22,60.74 98.67,66.48 105.51,66.48C111.71,66.48 114.64,62.26 115.06,57.44L119.14,57.44C119.09,60.7 117.53,64.37 115.19,66.67C112.9,68.92 109.55,70.11 105.37,70.11C96.05,70.11 90,63 90,53.04L89.99,53.04L89.99,53.03ZM98.98,29.85L102.97,29.85L105.22,32.74L105.31,32.74L107.65,29.85L111.55,29.85L107.28,34.72L103.06,34.72L98.98,29.85Z" style="fill-rule:nonzero;"/>
        </g>
        <g transform="matrix(1.10468,0,0,1.10468,-26.1699,-5.23266)">
            <path d="M121.9,57.62C121.9,50.74 126.4,45.14 133.14,45.14C140.25,45.14 144.06,50.65 144.06,58.49L125.7,58.49C125.98,63.31 128.59,66.98 133.36,66.98C136.8,66.98 139.1,65.33 139.92,62.11L143.54,62.11C142.44,67.2 138.72,70.1 133.35,70.1C126.1,70.1 121.88,64.5 121.88,57.62L121.9,57.62ZM125.8,55.69L140.07,55.69C139.84,50.96 137.41,48.07 133.14,48.07C128.87,48.07 126.35,51.37 125.8,55.69Z" style="fill-rule:nonzero;"/>
        </g>
        <g transform="matrix(1.10468,0,0,1.10468,-26.1699,-5.23266)">
            <path d="M146.19,61.75L150,61.75C150.5,65.88 153.26,67.03 156.79,67.03C160.69,67.03 162.3,65.33 162.3,63.13C162.3,60.47 160.46,59.78 156.1,58.86C151.42,57.9 147.24,56.93 147.24,51.75C147.24,47.8 150.27,45.23 155.78,45.23C161.65,45.23 164.54,48.03 165.1,52.67L161.29,52.67C160.92,49.55 159.23,48.17 155.69,48.17C152.15,48.17 150.92,49.69 150.92,51.57C150.92,54.14 153.21,54.65 157.3,55.47C162.07,56.43 166.07,57.49 166.07,62.95C166.07,67.72 162.17,70.15 156.71,70.15C150.19,70.15 146.57,67.07 146.2,61.75L146.19,61.75Z" style="fill-rule:nonzero;"/>
        </g>
        <g transform="matrix(1.10468,0,0,1.10468,-26.1699,-5.23266)">
            <path d="M176.86,56.66L173.37,59.96L173.37,69.46L169.65,69.46L169.65,36.65L173.37,36.65L173.37,55.88L183.79,45.74L188.52,45.74L179.43,54.27L189.62,69.46L185.26,69.46L176.86,56.66Z" style="fill-rule:nonzero;"/>
        </g>
        <g transform="matrix(1.10468,0,0,1.10468,-26.1699,-5.23266)">
            <path d="M206.2,66.16L206.15,66.16C204.73,67.99 202.29,69.92 198.26,69.92C193.76,69.92 190.23,67.81 190.23,63.31C190.23,57.71 194.64,56.57 200.56,55.65C203.91,55.15 206.25,54.82 206.25,52.26C206.25,49.7 204.32,48.08 200.93,48.08C197.07,48.08 195.15,49.73 195.01,53.31L191.43,53.31C191.57,48.72 194.6,45.28 200.88,45.28C205.93,45.28 209.64,47.16 209.64,52.81L209.64,64.1C209.64,66.03 210.1,67.08 212.16,66.63L212.3,66.63L212.3,69.34C211.84,69.52 211.24,69.71 210.28,69.71C207.85,69.71 206.56,68.61 206.2,66.18L206.2,66.16ZM206.28,60.69L206.28,56.65C205.04,57.43 202.89,58.03 200.87,58.39C197.15,59.08 194.17,59.72 194.17,63.21C194.17,66.37 196.65,67.06 199.08,67.06C204.04,67.06 206.28,63.44 206.28,60.68L206.28,60.69ZM201.74,36.19L206.33,36.19L202.57,42.02L199.4,42.02L201.74,36.19Z" style="fill-rule:nonzero;"/>
        </g>
        <g transform="matrix(1.10468,0,0,1.10468,-26.1699,-5.23266)">
            <path d="M220.71,57.67C220.71,50.69 225.44,45.28 232.32,45.28C239.89,45.28 243.93,51.06 243.93,59.46L226.86,59.46C227.32,63.08 229.34,65.33 232.87,65.33C235.3,65.33 236.72,64.23 237.41,62.44L243.56,62.44C242.69,66.62 238.97,70.15 232.91,70.15C225.11,70.15 220.7,64.69 220.7,57.67L220.71,57.67ZM226.95,55.14L237.41,55.14C237.23,52.16 235.25,50.09 232.41,50.09C229.11,50.09 227.5,52.06 226.95,55.14Z" style="fill-rule:nonzero;"/>
        </g>
        <g transform="matrix(1.10468,0,0,1.10468,-26.1699,-5.23266)">
            <rect x="246.38" y="55.42" width="12.44" height="5.37" style="fill-rule:nonzero;"/>
        </g>
        <g transform="matrix(1.10468,0,0,1.10468,-26.1699,-5.23266)">
            <path d="M261.25,57.71C261.25,50.69 265.84,45.27 273,45.27C279.1,45.27 282.87,48.8 283.69,53.9L277.59,53.9C277.18,51.83 275.57,50.27 273.28,50.27C269.52,50.27 267.59,53.16 267.59,57.71C267.59,62.26 269.38,65.15 273.19,65.15C275.71,65.15 277.5,63.82 277.92,61.16L283.93,61.16C283.52,66.16 279.62,70.15 273.33,70.15C265.9,70.15 261.26,64.74 261.26,57.71L261.25,57.71Z" style="fill-rule:nonzero;"/>
        </g>
        <g transform="matrix(1.10468,0,0,1.10468,-26.1699,-5.23266)">
            <path d="M285.5,57.71C285.5,50.69 290.5,45.27 297.8,45.27C305.1,45.27 310.1,50.68 310.1,57.71C310.1,64.74 305.1,70.15 297.8,70.15C290.5,70.15 285.5,64.74 285.5,57.71ZM303.76,57.71C303.76,53.12 301.6,50 297.79,50C293.98,50 291.82,53.12 291.82,57.71C291.82,62.3 293.93,65.37 297.79,65.37C301.65,65.37 303.76,62.29 303.76,57.71Z" style="fill-rule:nonzero;"/>
        </g>
        <g transform="matrix(1.10468,0,0,1.10468,-26.1699,-5.23266)">
            <path d="M313,45.92L319.01,45.92L319.01,49.08L319.15,49.08C320.44,46.92 322.73,45.27 325.99,45.27C328.97,45.27 331.36,46.92 332.51,49.4L332.6,49.4C334.21,46.83 336.68,45.27 339.67,45.27C344.62,45.27 347.43,48.48 347.43,53.62L347.43,69.45L341.19,69.45L341.19,54.67C341.19,52.01 339.86,50.63 337.57,50.63C334.95,50.63 333.35,52.65 333.35,55.77L333.35,69.45L327.11,69.45L327.11,54.67C327.11,52.01 325.78,50.63 323.49,50.63C320.97,50.63 319.27,52.65 319.27,55.77L319.27,69.45L313.03,69.45L313.03,45.91L313,45.91L313,45.92Z" style="fill-rule:nonzero;"/>
        </g>
        <g transform="matrix(1.10468,0,0,1.10468,-26.1699,-5.23266)">
            <path d="M351.29,45.92L357.3,45.92L357.3,49.08L357.44,49.08C358.73,46.92 361.02,45.27 364.28,45.27C367.26,45.27 369.65,46.92 370.8,49.4L370.89,49.4C372.5,46.83 374.97,45.27 377.96,45.27C382.91,45.27 385.72,48.48 385.72,53.62L385.72,69.45L379.48,69.45L379.48,54.67C379.48,52.01 378.15,50.63 375.86,50.63C373.24,50.63 371.64,52.65 371.64,55.77L371.64,69.45L365.4,69.45L365.4,54.67C365.4,52.01 364.07,50.63 361.78,50.63C359.26,50.63 357.56,52.65 357.56,55.77L357.56,69.45L351.32,69.45L351.32,45.91L351.29,45.91L351.29,45.92Z" style="fill-rule:nonzero;"/>
        </g>
        <g transform="matrix(1.10468,0,0,1.10468,-26.1699,-5.23266)">
            <path d="M388.44,57.67C388.44,50.69 393.17,45.28 400.05,45.28C407.62,45.28 411.66,51.06 411.66,59.46L394.59,59.46C395.05,63.08 397.07,65.33 400.6,65.33C403.03,65.33 404.45,64.23 405.14,62.44L411.29,62.44C410.42,66.62 406.7,70.15 400.64,70.15C392.84,70.15 388.43,64.69 388.43,57.67L388.44,57.67ZM394.68,55.14L405.14,55.14C404.96,52.16 402.98,50.09 400.14,50.09C396.84,50.09 395.23,52.06 394.68,55.14Z" style="fill-rule:nonzero;"/>
        </g>
        <g transform="matrix(1.10468,0,0,1.10468,-26.1699,-5.23266)">
            <path d="M420.58,49.68L420.72,49.68C422.14,47.02 423.75,45.64 426.5,45.64C427.19,45.64 427.6,45.68 427.97,45.82L427.97,51.28L427.83,51.28C423.75,50.87 420.81,53.02 420.81,57.98L420.81,69.45L414.57,69.45L414.57,45.91L420.58,45.91L420.58,49.68Z" style="fill-rule:nonzero;"/>
        </g>
        <g transform="matrix(1.10468,0,0,1.10468,-26.1699,-5.23266)">
            <path d="M428.84,57.71C428.84,50.69 433.43,45.27 440.59,45.27C446.69,45.27 450.46,48.8 451.28,53.9L445.18,53.9C444.77,51.83 443.16,50.27 440.87,50.27C437.11,50.27 435.18,53.16 435.18,57.71C435.18,62.26 436.97,65.15 440.78,65.15C443.3,65.15 445.09,63.82 445.51,61.16L451.52,61.16C451.11,66.16 447.21,70.15 440.92,70.15C433.49,70.15 428.85,64.74 428.85,57.71L428.84,57.71Z" style="fill-rule:nonzero;"/>
        </g>
        <g transform="matrix(1.10468,0,0,1.10468,-26.1699,-5.23266)">
            <path d="M453.09,57.67C453.09,50.69 457.82,45.28 464.7,45.28C472.27,45.28 476.31,51.06 476.31,59.46L459.24,59.46C459.7,63.08 461.72,65.33 465.25,65.33C467.68,65.33 469.1,64.23 469.79,62.44L475.94,62.44C475.07,66.62 471.35,70.15 465.29,70.15C457.49,70.15 453.08,64.69 453.08,57.67L453.09,57.67ZM459.33,55.14L469.79,55.14C469.61,52.16 467.63,50.09 464.79,50.09C461.49,50.09 459.88,52.06 459.33,55.14Z" style="fill-rule:nonzero;"/>
        </g>
    </g>
</svg>
